<?xml version="1.0" encoding="utf-8"?>
<!-- Generator: Adobe Illustrator 23.0.3, SVG Export Plug-In . SVG Version: 6.00 Build 0)  -->
<svg version="1.1" id="Layer_1" xmlns="http://www.w3.org/2000/svg" xmlns:xlink="http://www.w3.org/1999/xlink" x="0px" y="0px"
	 viewBox="0 0 167 173" style="enable-background:new 0 0 167 173;" xml:space="preserve">
<style type="text/css">
	.st0{fill:#1192D1;}
</style>
<g>
	<path class="st0" d="M113.4,88.3c-0.2-0.4-0.4-0.7-0.7-1L93.6,68.1c-1.2-1.2-3.3-1.2-4.5,0c-1.2,1.2-1.2,3.3,0,4.5l13.7,13.7H56.4
		c-1.8,0-3.2,1.4-3.2,3.2s1.4,3.2,3.2,3.2h46.4l-13.7,13.7c-1.2,1.2-1.2,3.3,0,4.5c0.6,0.6,1.4,0.9,2.3,0.9s1.6-0.3,2.3-0.9
		l19.1-19.1c0.3-0.3,0.5-0.6,0.7-1C113.8,89.9,113.8,89.1,113.4,88.3z"/>
	<path class="st0" d="M83.4,13C41.2,13,7,47.3,7,89.5C7,131.8,41.2,166,83.4,166c42.2,0,76.5-34.2,76.5-76.5
		C159.9,47.3,125.7,13,83.4,13z M83.4,159.6c-38.7,0-70.1-31.5-70.1-70.1s31.5-70.1,70.1-70.1c38.7,0,70.1,31.5,70.1,70.1
		S122.1,159.6,83.4,159.6z"/>
</g>
</svg>
