<?xml version="1.0" encoding="utf-8"?>
<!-- Generator: Adobe Illustrator 23.0.3, SVG Export Plug-In . SVG Version: 6.00 Build 0)  -->
<svg version="1.1" id="Layer_1" xmlns="http://www.w3.org/2000/svg" xmlns:xlink="http://www.w3.org/1999/xlink" x="0px" y="0px"
	 viewBox="0 0 1052 508" style="enable-background:new 0 0 1052 508;" xml:space="preserve">
<style type="text/css">
	.st0{fill:#0094D9;}
	.st1{fill:#FFFFFF;}
	.st2{fill:none;}
	.st3{font-family:'YuGothicUI-Light';}
	.st4{font-size:112.9885px;}
</style>
<circle class="st0" cx="512" cy="236.8" r="166.4"/>
<g>
	<path class="st0" d="M127.2,139.8h84.8v17.5H159v13h49.3v16.7H159v16.2h54.6v18.6h-86.4V139.8z"/>
	<path class="st0" d="M230.3,139.8h41.6l16.1,49.9l15.9-49.9h41.6v82h-25.9v-62.5l-20,62.5h-23.5l-19.9-62.5v62.5h-25.9V139.8z"/>
	<path class="st1" d="M365.6,139.8h52.6c11.5,0,20,2.2,25.7,6.5c5.7,4.4,8.6,10.6,8.6,18.6c0,8.3-3.1,14.7-9.3,19.4
		c-6.2,4.7-15.7,7-28.5,7h-17.3v30.4h-31.8V139.8z M397.4,174.8h7.8c6.1,0,10.4-0.8,12.9-2.5c2.5-1.7,3.7-3.9,3.7-6.5
		c0-2.6-1.1-4.8-3.2-6.5c-2.1-1.8-6.2-2.7-12.1-2.7h-9V174.8z"/>
	<path class="st1" d="M469.1,139.8h31.7v61.8h49.4v20.2h-81.1V139.8z"/>
	<path class="st1" d="M558.1,180.9c0-13.4,4.7-23.8,14-31.3c9.3-7.5,22.3-11.2,38.9-11.2c17.1,0,30.2,3.7,39.4,11
		c9.2,7.3,13.8,17.6,13.8,30.8c0,9.6-2,17.4-6,23.6c-4,6.1-9.8,10.9-17.5,14.3c-7.6,3.4-17.1,5.1-28.5,5.1
		c-11.6,0-21.1-1.5-28.7-4.4c-7.6-2.9-13.7-7.6-18.4-14C560.5,198.4,558.1,190.5,558.1,180.9z M589.8,181c0,8.3,1.9,14.2,5.8,17.8
		c3.8,3.6,9.1,5.4,15.7,5.4c6.8,0,12.1-1.8,15.8-5.3c3.7-3.5,5.6-9.9,5.6-19.1c0-7.7-1.9-13.4-5.8-16.9c-3.9-3.6-9.2-5.3-15.8-5.3
		c-6.4,0-11.5,1.8-15.4,5.4C591.7,166.7,589.8,172.6,589.8,181z"/>
	<path class="st0" d="M661.3,139.8h35.2l20.6,27.6l20.7-27.6h35l-39.8,47.6v34.3h-31.7v-34.3L661.3,139.8z"/>
</g>
<rect x="352.9" y="218.8" class="st2" width="701.1" height="101.5"/>
<text transform="matrix(1 0 0 0.8 352.8926 302.4072)"><tspan x="0" y="0" class="st1 st3 st4">GRAD</tspan><tspan x="285.4" y="0" class="st0 st3 st4">UATES</tspan></text>
<path class="st1" d="M664.6,303.1c-11.6-2.6-17.4-10.8-17.4-24.5v-39h5.4v38.4c0,11.3,4.4,18.2,13.3,20.9"/>
</svg>
