<?xml version="1.0" encoding="utf-8"?>
<!-- Generator: Adobe Illustrator 20.0.0, SVG Export Plug-In . SVG Version: 6.00 Build 0)  -->
<svg version="1.1" id="Layer_1" xmlns="http://www.w3.org/2000/svg" xmlns:xlink="http://www.w3.org/1999/xlink" x="0px" y="0px"
	 viewBox="0 0 1440 1440" style="enable-background:new 0 0 14400 14400;" xml:space="preserve">
<style type="text/css">
	.st0{fill:none;stroke:#4D4D4D;}
	.st1{fill:#696B70;}
	.st2{fill:#4D4D4D;}
</style>
<path class="st0" d="M7226.9,7230h-243.5c-31,0-56.1,24.8-56.1,55.5s25.1,55.5,56.1,55.5h243.5c31,0,56.1-24.8,56.1-55.5
	S7257.9,7230,7226.9,7230z"/>
<g>
	<path class="st1" d="M6999.2,7277c0.8,0,1.6,0.1,2.3,0.3c0.7,0.2,1.4,0.5,1.9,0.9c0.6,0.4,1,1,1.3,1.6c0.3,0.7,0.5,1.4,0.5,2.3
		c0,1.3-0.3,2.4-1,3.3c-0.7,0.9-1.6,1.5-2.9,1.8v0.1c0.7,0.1,1.2,0.3,1.6,0.5c0.4,0.3,0.8,0.6,1,1c0.3,0.4,0.5,0.8,0.6,1.4
		c0.1,0.5,0.2,1.1,0.2,1.7c0,0.3,0,0.7,0.1,1.2c0,0.5,0.1,1,0.1,1.5c0.1,0.5,0.1,1,0.3,1.4c0.1,0.4,0.3,0.8,0.5,1h-2.1
		c-0.1-0.2-0.2-0.4-0.3-0.7c-0.1-0.3-0.1-0.5-0.1-0.8c0-0.3-0.1-0.6-0.1-0.9c0-0.3,0-0.5-0.1-0.7c0-0.7-0.1-1.4-0.2-2.1
		c-0.1-0.7-0.3-1.3-0.5-1.9c-0.3-0.5-0.7-1-1.2-1.3c-0.5-0.3-1.2-0.5-2.1-0.4h-7.2v8.9h-1.9v-20H6999.2z M6999,7286.5
		c0.6,0,1.1-0.1,1.7-0.3c0.5-0.2,1-0.4,1.4-0.8s0.7-0.7,0.9-1.2c0.2-0.5,0.4-1,0.4-1.6c0-1.2-0.4-2.2-1.1-2.9
		c-0.7-0.7-1.8-1.1-3.2-1.1h-7.1v7.9H6999z"/>
	<path class="st1" d="M7022.5,7277v1.6h-11.9v7.2h11.1v1.6h-11.1v7.9h12v1.6h-13.9v-20H7022.5z"/>
	<path class="st1" d="M7041,7297l-0.3-3.6h-0.1c-0.3,0.7-0.8,1.3-1.2,1.8c-0.5,0.5-1,0.9-1.6,1.3c-0.6,0.3-1.2,0.6-1.9,0.7
		c-0.7,0.1-1.4,0.2-2.1,0.2c-1.6,0-2.9-0.3-4.1-0.9c-1.2-0.6-2.2-1.3-3-2.3s-1.4-2.1-1.8-3.3c-0.4-1.3-0.6-2.6-0.6-3.9
		c0-1.4,0.2-2.7,0.6-3.9c0.4-1.2,1-2.4,1.8-3.3c0.8-1,1.8-1.7,3-2.3c1.2-0.6,2.6-0.9,4.1-0.9c1,0,2,0.1,3,0.4s1.8,0.7,2.5,1.3
		c0.7,0.6,1.3,1.3,1.8,2.1s0.8,1.8,1,2.9h-1.9c-0.1-0.6-0.2-1.2-0.6-1.8c-0.3-0.6-0.8-1.1-1.3-1.6c-0.6-0.5-1.2-0.9-2-1.2
		c-0.8-0.3-1.6-0.5-2.6-0.5c-1.3,0-2.5,0.3-3.4,0.8s-1.7,1.2-2.3,2c-0.6,0.8-1.1,1.8-1.3,2.8c-0.3,1-0.4,2.1-0.4,3.2
		c0,1.1,0.1,2.2,0.4,3.2s0.7,2,1.3,2.8c0.6,0.8,1.4,1.5,2.3,2s2.1,0.8,3.4,0.8c1.1,0,2.1-0.2,3-0.5c0.9-0.4,1.6-0.9,2.2-1.5
		c0.6-0.7,1-1.4,1.3-2.3c0.3-0.9,0.4-1.9,0.4-2.9h-6.8v-1.6h8.5v10.2H7041z"/>
	<path class="st1" d="M7048.1,7277v20h-1.9v-20H7048.1z"/>
	<path class="st1" d="M7053.6,7293c0.3,0.7,0.8,1.2,1.4,1.7c0.6,0.4,1.3,0.7,2.1,0.9c0.8,0.2,1.7,0.3,2.6,0.3c0.5,0,1.1-0.1,1.7-0.2
		c0.6-0.1,1.2-0.4,1.7-0.7c0.5-0.3,1-0.7,1.3-1.3c0.4-0.5,0.5-1.1,0.5-1.9c0-0.6-0.1-1-0.4-1.5c-0.3-0.4-0.6-0.8-1-1
		c-0.4-0.3-0.8-0.5-1.3-0.7c-0.5-0.2-1-0.3-1.4-0.4l-4.5-1.1c-0.6-0.1-1.1-0.3-1.7-0.6s-1-0.5-1.4-0.9c-0.4-0.4-0.7-0.8-1-1.4
		c-0.3-0.5-0.4-1.2-0.4-2c0-0.5,0.1-1.1,0.3-1.7c0.2-0.7,0.5-1.3,1-1.8c0.5-0.6,1.2-1.1,2.1-1.5c0.9-0.4,2-0.6,3.4-0.6
		c1,0,1.9,0.1,2.8,0.4c0.9,0.3,1.7,0.7,2.4,1.2c0.7,0.5,1.2,1.2,1.6,1.9c0.4,0.8,0.6,1.7,0.6,2.7h-1.9c0-0.8-0.2-1.4-0.5-2
		c-0.3-0.6-0.7-1-1.2-1.4c-0.5-0.4-1.1-0.7-1.7-0.9s-1.3-0.3-2-0.3c-0.7,0-1.3,0.1-1.9,0.2c-0.6,0.1-1.1,0.4-1.6,0.7
		c-0.5,0.3-0.8,0.7-1.1,1.2c-0.3,0.5-0.4,1.1-0.4,1.9c0,0.5,0.1,0.9,0.2,1.2c0.2,0.3,0.4,0.6,0.7,0.9c0.3,0.2,0.6,0.4,1,0.6
		c0.4,0.1,0.8,0.3,1.2,0.4l4.9,1.2c0.7,0.2,1.4,0.4,2,0.7c0.6,0.3,1.2,0.6,1.7,1s0.8,0.9,1.1,1.5c0.3,0.6,0.4,1.3,0.4,2.1
		c0,0.2,0,0.5-0.1,0.9c0,0.4-0.2,0.8-0.3,1.2c-0.2,0.4-0.4,0.8-0.8,1.3c-0.3,0.4-0.8,0.8-1.3,1.2c-0.6,0.3-1.3,0.6-2.1,0.8
		c-0.8,0.2-1.8,0.3-3,0.3c-1.2,0-2.3-0.1-3.3-0.4c-1-0.3-1.9-0.7-2.6-1.2c-0.7-0.6-1.3-1.3-1.6-2.2c-0.4-0.9-0.5-1.9-0.5-3.2h1.9
		C7053.1,7291.4,7053.3,7292.3,7053.6,7293z"/>
	<path class="st1" d="M7083.6,7277v1.6h-7v18.4h-1.9v-18.4h-6.9v-1.6H7083.6z"/>
	<path class="st1" d="M7099.2,7277v1.6h-11.9v7.2h11.1v1.6h-11.1v7.9h12v1.6h-13.9v-20H7099.2z"/>
	<path class="st1" d="M7111.2,7277c0.8,0,1.6,0.1,2.3,0.3c0.7,0.2,1.4,0.5,1.9,0.9c0.6,0.4,1,1,1.3,1.6c0.3,0.7,0.5,1.4,0.5,2.3
		c0,1.3-0.3,2.4-1,3.3c-0.7,0.9-1.6,1.5-2.9,1.8v0.1c0.7,0.1,1.2,0.3,1.6,0.5c0.4,0.3,0.8,0.6,1,1c0.3,0.4,0.5,0.8,0.6,1.4
		c0.1,0.5,0.2,1.1,0.2,1.7c0,0.3,0,0.7,0.1,1.2c0,0.5,0.1,1,0.1,1.5c0.1,0.5,0.1,1,0.3,1.4c0.1,0.4,0.3,0.8,0.5,1h-2.1
		c-0.1-0.2-0.2-0.4-0.3-0.7c-0.1-0.3-0.1-0.5-0.1-0.8c0-0.3-0.1-0.6-0.1-0.9c0-0.3,0-0.5-0.1-0.7c0-0.7-0.1-1.4-0.2-2.1
		c-0.1-0.7-0.3-1.3-0.5-1.9c-0.3-0.5-0.7-1-1.2-1.3c-0.5-0.3-1.2-0.5-2.1-0.4h-7.2v8.9h-1.9v-20H7111.2z M7111.1,7286.5
		c0.6,0,1.1-0.1,1.7-0.3c0.5-0.2,1-0.4,1.4-0.8s0.7-0.7,0.9-1.2c0.2-0.5,0.4-1,0.4-1.6c0-1.2-0.4-2.2-1.1-2.9
		c-0.7-0.7-1.8-1.1-3.2-1.1h-7.1v7.9H7111.1z"/>
	<path class="st1" d="M7130.6,7277l11.6,16.9h0.1V7277h1.9v20h-2.1l-11.6-16.9h-0.1v16.9h-1.9v-20H7130.6z"/>
	<path class="st1" d="M7147.7,7283c0.4-1.2,1-2.4,1.8-3.3c0.8-1,1.8-1.7,3-2.3c1.2-0.6,2.6-0.9,4.1-0.9c1.6,0,2.9,0.3,4.1,0.9
		c1.2,0.6,2.2,1.3,2.9,2.3c0.8,1,1.4,2.1,1.8,3.3c0.4,1.3,0.6,2.6,0.6,3.9c0,1.4-0.2,2.7-0.6,3.9c-0.4,1.2-1,2.4-1.8,3.3
		c-0.8,1-1.8,1.7-2.9,2.3c-1.2,0.6-2.5,0.9-4.1,0.9c-1.6,0-2.9-0.3-4.1-0.9s-2.2-1.3-3-2.3c-0.8-1-1.4-2.1-1.8-3.3
		c-0.4-1.3-0.6-2.6-0.6-3.9C7147.2,7285.6,7147.4,7284.3,7147.7,7283z M7149.5,7290.2c0.3,1.1,0.7,2,1.3,2.8c0.6,0.8,1.4,1.5,2.3,2
		c1,0.5,2.1,0.8,3.4,0.8c1.3,0,2.5-0.3,3.4-0.8c0.9-0.5,1.7-1.2,2.3-2c0.6-0.8,1.1-1.8,1.3-2.8c0.3-1.1,0.4-2.1,0.4-3.2
		c0-1.1-0.1-2.2-0.4-3.2c-0.3-1-0.7-2-1.3-2.8c-0.6-0.8-1.4-1.5-2.3-2c-0.9-0.5-2.1-0.8-3.4-0.8c-1.3,0-2.5,0.3-3.4,0.8
		c-1,0.5-1.7,1.2-2.3,2c-0.6,0.8-1.1,1.8-1.3,2.8c-0.3,1-0.4,2.1-0.4,3.2C7149.1,7288.1,7149.2,7289.1,7149.5,7290.2z"/>
	<path class="st1" d="M7169,7277l4.5,17.5h0.1l4.9-17.5h2.4l4.9,17.5h0.1l4.6-17.5h1.9l-5.5,20h-2l-5.1-17.9h-0.1l-5,17.9h-2.1
		l-5.5-20H7169z"/>
</g>
<g>
	<path class="st2" d="M7238.7,7290.3l-17.1,9.6v-4.1l13.5-7.4l-13.5-7.3v-4.1l17.1,9.5V7290.3z"/>
</g>
</svg>
